<svg width="61" height="15" viewBox="0 0 61 15" fill="none" xmlns="http://www.w3.org/2000/svg">
<path d="M0 4C0 1.79086 1.79086 0 4 0H57C59.2091 0 61 1.79086 61 4V11C61 13.2091 59.2091 15 57 15H4C1.79086 15 0 13.2091 0 11V4Z" fill="#ECECEC"/>
<path d="M10.72 12V3.6H16.072V5.4H12.52V6.6H15.256V8.4H12.52V10.2H16.072V12H10.72ZM23.262 8.166V12H21.462V8.67C21.462 8.482 21.416 8.312 21.324 8.16C21.232 8.004 21.11 7.882 20.958 7.794C20.806 7.702 20.636 7.656 20.448 7.656C20.26 7.656 20.088 7.702 19.932 7.794C19.78 7.882 19.658 8.004 19.566 8.16C19.478 8.312 19.434 8.482 19.434 8.67V12H17.634L17.628 6H19.428L19.434 6.378C19.634 6.206 19.862 6.072 20.118 5.976C20.374 5.88 20.644 5.832 20.928 5.832C21.36 5.832 21.752 5.938 22.104 6.15C22.456 6.358 22.736 6.638 22.944 6.99C23.156 7.342 23.262 7.734 23.262 8.166ZM28.8668 6H30.6668V12.06C30.6668 12.516 30.5748 12.924 30.3908 13.284C30.2108 13.648 29.9628 13.958 29.6468 14.214C29.3308 14.47 28.9668 14.664 28.5548 14.796C28.1468 14.932 27.7148 15 27.2588 15C26.8348 15 26.4288 14.918 26.0408 14.754C25.6528 14.594 25.3068 14.37 25.0028 14.082C24.6988 13.794 24.4588 13.46 24.2828 13.08L25.9268 12.336C26.0108 12.516 26.1208 12.668 26.2568 12.792C26.3928 12.92 26.5468 13.018 26.7188 13.086C26.8908 13.154 27.0708 13.188 27.2588 13.188C27.4668 13.188 27.6668 13.166 27.8588 13.122C28.0508 13.078 28.2228 13.01 28.3748 12.918C28.5268 12.826 28.6468 12.708 28.7348 12.564C28.8228 12.424 28.8668 12.256 28.8668 12.06V11.472C28.6868 11.676 28.4728 11.842 28.2248 11.97C27.9808 12.094 27.6988 12.156 27.3788 12.156C26.9428 12.156 26.5348 12.074 26.1548 11.91C25.7748 11.746 25.4388 11.52 25.1468 11.232C24.8588 10.94 24.6328 10.604 24.4688 10.224C24.3048 9.844 24.2228 9.436 24.2228 9C24.2228 8.564 24.3048 8.156 24.4688 7.776C24.6328 7.396 24.8588 7.062 25.1468 6.774C25.4388 6.482 25.7748 6.254 26.1548 6.09C26.5348 5.926 26.9428 5.844 27.3788 5.844C27.6988 5.844 27.9808 5.908 28.2248 6.036C28.4728 6.16 28.6868 6.324 28.8668 6.528V6ZM27.4028 10.428C27.6508 10.428 27.8768 10.364 28.0808 10.236C28.2848 10.108 28.4468 9.936 28.5668 9.72C28.6868 9.504 28.7468 9.264 28.7468 9C28.7468 8.736 28.6868 8.496 28.5668 8.28C28.4468 8.064 28.2848 7.892 28.0808 7.764C27.8768 7.636 27.6508 7.572 27.4028 7.572C27.1588 7.572 26.9348 7.636 26.7308 7.764C26.5308 7.892 26.3708 8.064 26.2508 8.28C26.1308 8.496 26.0708 8.736 26.0708 9C26.0708 9.264 26.1308 9.504 26.2508 9.72C26.3708 9.936 26.5308 10.108 26.7308 10.236C26.9348 10.364 27.1588 10.428 27.4028 10.428ZM32.3462 12V3H34.1462V12H32.3462ZM35.8206 6H37.6206V12H35.8206V6ZM36.7326 5.376C36.4726 5.376 36.2546 5.29 36.0786 5.118C35.9026 4.946 35.8146 4.732 35.8146 4.476C35.8146 4.224 35.9026 4.012 36.0786 3.84C36.2546 3.664 36.4706 3.576 36.7266 3.576C36.9786 3.576 37.1906 3.664 37.3626 3.84C37.5386 4.012 37.6266 4.224 37.6266 4.476C37.6266 4.732 37.5406 4.946 37.3686 5.118C37.2006 5.29 36.9886 5.376 36.7326 5.376ZM40.9058 12.108C40.6018 12.08 40.3098 12.014 40.0298 11.91C39.7498 11.806 39.4998 11.664 39.2798 11.484C39.0598 11.304 38.8858 11.084 38.7578 10.824L40.2698 10.176C40.3098 10.22 40.3658 10.276 40.4378 10.344C40.5098 10.408 40.5998 10.466 40.7078 10.518C40.8198 10.57 40.9538 10.596 41.1098 10.596C41.2138 10.596 41.3138 10.586 41.4098 10.566C41.5098 10.542 41.5898 10.502 41.6498 10.446C41.7138 10.39 41.7458 10.312 41.7458 10.212C41.7458 10.1 41.7038 10.016 41.6198 9.96C41.5398 9.9 41.4418 9.858 41.3258 9.834C41.2098 9.806 41.1018 9.784 41.0018 9.768C40.6458 9.712 40.3038 9.6 39.9758 9.432C39.6518 9.26 39.3858 9.038 39.1778 8.766C38.9698 8.49 38.8658 8.168 38.8658 7.8C38.8658 7.388 38.9718 7.032 39.1838 6.732C39.3958 6.432 39.6718 6.202 40.0118 6.042C40.3558 5.878 40.7258 5.796 41.1218 5.796C41.5898 5.796 42.0218 5.892 42.4178 6.084C42.8178 6.276 43.1458 6.552 43.4018 6.912L41.9858 7.752C41.9378 7.692 41.8778 7.632 41.8058 7.572C41.7378 7.508 41.6578 7.454 41.5658 7.41C41.4778 7.362 41.3818 7.332 41.2778 7.32C41.1378 7.308 41.0118 7.314 40.8998 7.338C40.7918 7.358 40.7058 7.402 40.6418 7.47C40.5778 7.534 40.5458 7.628 40.5458 7.752C40.5458 7.868 40.6018 7.952 40.7138 8.004C40.8258 8.056 40.9518 8.094 41.0918 8.118C41.2318 8.142 41.3458 8.168 41.4338 8.196C41.7778 8.308 42.1018 8.454 42.4058 8.634C42.7098 8.814 42.9538 9.032 43.1378 9.288C43.3258 9.544 43.4138 9.844 43.4018 10.188C43.4018 10.588 43.2818 10.94 43.0418 11.244C42.8018 11.548 42.4918 11.778 42.1118 11.934C41.7318 12.09 41.3298 12.148 40.9058 12.108ZM50.2901 8.166V12H48.4901V8.67C48.4901 8.482 48.4441 8.312 48.3521 8.16C48.2601 8.004 48.1381 7.882 47.9861 7.794C47.8341 7.702 47.6641 7.656 47.4761 7.656C47.2881 7.656 47.1161 7.702 46.9601 7.794C46.8081 7.882 46.6861 8.004 46.5941 8.16C46.5061 8.312 46.4621 8.482 46.4621 8.67V12H44.6621L44.6561 3H46.4561L46.4621 6.378C46.6621 6.206 46.8901 6.072 47.1461 5.976C47.4021 5.88 47.6721 5.832 47.9561 5.832C48.3881 5.832 48.7801 5.938 49.1321 6.15C49.4841 6.358 49.7641 6.638 49.9721 6.99C50.1841 7.342 50.2901 7.734 50.2901 8.166Z" fill="#909090"/>
</svg>
