<svg width="24" height="25" viewBox="0 0 24 25" fill="none" xmlns="http://www.w3.org/2000/svg">
<g clip-path="url(#clip0_614_2624)">
<path d="M11.9423 6.37642L17.7402 18.3587C17.9836 18.8455 18.1053 19.2105 18.1053 19.4539C18.1053 19.9693 17.6901 20.4345 16.8598 20.8497C16.3731 21.0931 15.9865 21.2147 15.7002 21.2147C15.4282 21.2147 15.1992 21.1503 15.0131 21.0215C14.8413 20.8926 14.7124 20.7566 14.6265 20.6135C14.5549 20.4703 14.4476 20.2556 14.3044 19.9693L13.1878 17.6501H7.23958L6.12295 19.9693C5.97979 20.2556 5.86526 20.4632 5.77937 20.592C5.70779 20.7208 5.57895 20.8568 5.39284 21C5.22105 21.1288 4.992 21.1933 4.70568 21.1933C4.43368 21.1933 4.05432 21.0716 3.56758 20.8282C2.73726 20.4274 2.32211 19.9693 2.32211 19.4539C2.32211 19.2105 2.44379 18.8455 2.68716 18.3587L8.48505 6.35495C8.64253 6.02568 8.87874 5.76084 9.19368 5.56042C9.52295 5.36 9.86653 5.25979 10.2244 5.25979C10.9975 5.25979 11.5701 5.632 11.9423 6.37642ZM10.2029 11.5301L8.78568 14.472H11.6417L10.2029 11.5301Z" fill="#394752"/>
<path d="M19.6772 4.15724H21.0179C21.4041 4.15724 21.6855 4.2069 21.8621 4.30621C22.0386 4.39448 22.1545 4.53241 22.2097 4.72C22.2759 4.90759 22.309 5.16138 22.309 5.48138C22.309 5.79034 22.2814 6.03862 22.2262 6.22621C22.171 6.41379 22.0772 6.54621 21.9448 6.62345C21.7462 6.72276 21.4648 6.77241 21.1007 6.77241H19.6772V8.1131C19.6772 8.49931 19.6276 8.78069 19.5283 8.95724C19.44 9.13379 19.3021 9.25517 19.1145 9.32138C18.9269 9.37655 18.6731 9.40414 18.3531 9.40414C18.0441 9.40414 17.7959 9.37655 17.6083 9.32138C17.4207 9.25517 17.2883 9.15034 17.211 9.0069C17.1117 8.79724 17.0621 8.49379 17.0621 8.09655V6.77241H15.6221C15.2579 6.77241 14.9931 6.72828 14.8276 6.64C14.6621 6.55172 14.5517 6.41379 14.4966 6.22621C14.4414 6.02759 14.4138 5.77379 14.4138 5.46483C14.4138 5.15586 14.4414 4.90759 14.4966 4.72C14.5628 4.52138 14.6731 4.38345 14.8276 4.30621C15.0372 4.2069 15.3407 4.15724 15.7379 4.15724H17.0621V2.81655C17.0621 2.43034 17.1062 2.14897 17.1945 1.97241C17.2828 1.79586 17.4207 1.68 17.6083 1.62483C17.8069 1.55862 18.0607 1.52552 18.3697 1.52552C18.6786 1.52552 18.9269 1.55862 19.1145 1.62483C19.3131 1.68 19.451 1.77931 19.5283 1.92276C19.6276 2.13241 19.6772 2.43586 19.6772 2.8331V4.15724Z" fill="#394752"/>
</g>
<defs>
<clipPath id="clip0_614_2624">
<rect width="24" height="25" fill="white"/>
</clipPath>
</defs>
</svg>
