<svg width="24" height="24" viewBox="0 0 24 24" fill="none" xmlns="http://www.w3.org/2000/svg">
<path d="M19.07 4.93001C17.22 3.00001 14.66 1.96001 12 2.00001C9.34001 1.96001 6.79001 3.00001 4.94001 4.93001C3.00001 6.78001 1.96001 9.34001 2.00001 12C1.96001 14.66 3.00001 17.21 4.93001 19.06C6.78001 21 9.34001 22.04 12 22C14.66 22.04 17.21 21 19.06 19.07C21 17.22 22.04 14.66 22 12C22.04 9.34001 21 6.78001 19.07 4.93001ZM17 12V18H13.5V13H10.5V18H7.00001V12H5.00001L12 5.00001L19.5 12H17Z" fill="#394752"/>
</svg>
