<svg width="20" height="21" viewBox="0 0 20 21" fill="none" xmlns="http://www.w3.org/2000/svg">
<path d="M17.07 2.93001C15.22 1.00001 12.66 -0.0399863 10 1.3688e-05C7.34001 -0.0399863 4.79001 1.00001 2.94001 2.93001C1.00001 4.78001 -0.0399863 7.34001 1.3688e-05 10C-0.0399863 12.66 1.00001 15.21 2.93001 17.06C4.78001 19 7.34001 20.04 10 20C12.66 20.04 15.21 19 17.06 17.07C19 15.22 20.04 12.66 20 10C20.04 7.34001 19 4.78001 17.07 2.93001ZM15 10V16H11.5V11H8.50001V16H5.00001V10H3.00001L10 3.00001L17.5 10H15Z" fill="#394752"/>
</svg>
