<svg width="20" height="15" viewBox="0 0 20 15" fill="none" xmlns="http://www.w3.org/2000/svg">
<path d="M8 10.625L13.19 7.5L8 4.375V10.625ZM19.56 2.46875C19.69 2.95833 19.78 3.61458 19.84 4.44791C19.91 5.28125 19.94 6 19.94 6.625L20 7.5C20 9.78125 19.84 11.4583 19.56 12.5312C19.31 13.4687 18.73 14.0729 17.83 14.3333C17.36 14.4687 16.5 14.5625 15.18 14.625C13.88 14.6979 12.69 14.7292 11.59 14.7292L10 14.7917C5.81 14.7917 3.2 14.625 2.17 14.3333C1.27 14.0729 0.69 13.4687 0.44 12.5312C0.31 12.0417 0.22 11.3854 0.16 10.5521C0.0900001 9.71875 0.0599999 9 0.0599999 8.375L0 7.5C0 5.21875 0.16 3.54166 0.44 2.46875C0.69 1.53125 1.27 0.927078 2.17 0.666662C2.64 0.531245 3.5 0.437495 4.82 0.374995C6.12 0.302078 7.31 0.270828 8.41 0.270828L10 0.208328C14.19 0.208328 16.8 0.374995 17.83 0.666662C18.73 0.927078 19.31 1.53125 19.56 2.46875Z" fill="#394752"/>
</svg>
