<svg width="24" height="25" viewBox="0 0 24 25" fill="none" xmlns="http://www.w3.org/2000/svg">
<path d="M0 5C0 2.23858 2.23858 0 5 0H19C21.7614 0 24 2.23858 24 5V20C24 22.7614 21.7614 25 19 25H5C2.23858 25 0 22.7614 0 20V5Z" fill="#ECECEC"/>
<path d="M10 15.625L15.19 12.5L10 9.375V15.625ZM21.56 7.46875C21.69 7.95834 21.78 8.61459 21.84 9.44792C21.91 10.2813 21.94 11 21.94 11.625L22 12.5C22 14.7813 21.84 16.4583 21.56 17.5313C21.31 18.4688 20.73 19.0729 19.83 19.3333C19.36 19.4688 18.5 19.5625 17.18 19.625C15.88 19.6979 14.69 19.7292 13.59 19.7292L12 19.7917C7.81 19.7917 5.2 19.625 4.17 19.3333C3.27 19.0729 2.69 18.4688 2.44 17.5313C2.31 17.0417 2.22 16.3854 2.16 15.5521C2.09 14.7188 2.06 14 2.06 13.375L2 12.5C2 10.2188 2.16 8.54167 2.44 7.46875C2.69 6.53125 3.27 5.92709 4.17 5.66667C4.64 5.53125 5.5 5.4375 6.82 5.375C8.12 5.30209 9.31 5.27084 10.41 5.27084L12 5.20834C16.19 5.20834 18.8 5.375 19.83 5.66667C20.73 5.92709 21.31 6.53125 21.56 7.46875Z" fill="#E95952"/>
</svg>
