<svg width="17" height="10" viewBox="0 0 17 10" fill="none" xmlns="http://www.w3.org/2000/svg">
<path d="M4.032 9V7.14H0.48V5.34L3.624 0.599999H5.832V5.34H6.444V7.14H5.832V9H4.032ZM2.556 5.34H4.032V3.024L2.556 5.34ZM8.78016 9.156C8.52816 9.156 8.31416 9.07 8.13816 8.898C7.96616 8.722 7.88016 8.508 7.88016 8.256C7.88016 8.008 7.96616 7.796 8.13816 7.62C8.31416 7.444 8.52816 7.356 8.78016 7.356C9.02816 7.356 9.24016 7.444 9.41616 7.62C9.59216 7.796 9.68016 8.008 9.68016 8.256C9.68016 8.508 9.59216 8.722 9.41616 8.898C9.24016 9.07 9.02816 9.156 8.78016 9.156ZM13.9642 9.156C13.4362 9.156 12.9562 9.036 12.5242 8.796C12.0962 8.552 11.7542 8.226 11.4982 7.818C11.2462 7.406 11.1202 6.948 11.1202 6.444C11.1202 6.096 11.1862 5.762 11.3182 5.442C11.4542 5.122 11.6442 4.836 11.8882 4.584C11.7042 4.36 11.5582 4.114 11.4502 3.846C11.3422 3.574 11.2882 3.288 11.2882 2.988C11.2882 2.52 11.4082 2.094 11.6482 1.71C11.8922 1.322 12.2162 1.014 12.6202 0.786C13.0242 0.557999 13.4722 0.443999 13.9642 0.443999C14.4562 0.443999 14.9042 0.557999 15.3082 0.786C15.7122 1.014 16.0342 1.322 16.2742 1.71C16.5182 2.094 16.6402 2.52 16.6402 2.988C16.6402 3.288 16.5862 3.574 16.4782 3.846C16.3742 4.114 16.2282 4.36 16.0402 4.584C16.2922 4.836 16.4842 5.122 16.6162 5.442C16.7522 5.762 16.8202 6.096 16.8202 6.444C16.8202 6.944 16.6922 7.4 16.4362 7.812C16.1802 8.22 15.8362 8.546 15.4042 8.79C14.9722 9.034 14.4922 9.156 13.9642 9.156ZM13.9642 7.356C14.1402 7.356 14.3002 7.316 14.4442 7.236C14.5922 7.152 14.7082 7.042 14.7922 6.906C14.8802 6.766 14.9242 6.612 14.9242 6.444C14.9242 6.276 14.8802 6.124 14.7922 5.988C14.7082 5.848 14.5922 5.738 14.4442 5.658C14.3002 5.574 14.1402 5.532 13.9642 5.532C13.7882 5.532 13.6262 5.574 13.4782 5.658C13.3342 5.738 13.2182 5.848 13.1302 5.988C13.0462 6.124 13.0042 6.276 13.0042 6.444C13.0042 6.612 13.0462 6.766 13.1302 6.906C13.2182 7.042 13.3342 7.152 13.4782 7.236C13.6262 7.316 13.7882 7.356 13.9642 7.356ZM13.9642 3.732C14.1082 3.732 14.2382 3.698 14.3542 3.63C14.4742 3.562 14.5682 3.472 14.6362 3.36C14.7082 3.248 14.7442 3.124 14.7442 2.988C14.7442 2.852 14.7082 2.728 14.6362 2.616C14.5682 2.504 14.4742 2.414 14.3542 2.346C14.2382 2.278 14.1082 2.244 13.9642 2.244C13.8202 2.244 13.6882 2.278 13.5682 2.346C13.4522 2.414 13.3582 2.504 13.2862 2.616C13.2182 2.728 13.1842 2.852 13.1842 2.988C13.1842 3.124 13.2182 3.248 13.2862 3.36C13.3582 3.472 13.4522 3.562 13.5682 3.63C13.6882 3.698 13.8202 3.732 13.9642 3.732Z" fill="#F1B42E"/>
</svg>
