<svg width="24" height="24" viewBox="0 0 24 24" fill="none" xmlns="http://www.w3.org/2000/svg">
<path d="M11.7416 17.4259C11.9005 17.33 12.0995 17.33 12.2584 17.4259L17.1655 20.3877C17.5442 20.6162 18.0113 20.2767 17.9108 19.846L16.6086 14.2639C16.5664 14.0832 16.6278 13.8939 16.7681 13.7724L21.106 10.0145C21.4401 9.72506 21.2619 9.17635 20.8216 9.13838L15.1097 8.64585C14.9253 8.62994 14.7648 8.51345 14.6924 8.34306L12.4603 3.0843C12.2878 2.67812 11.7122 2.67812 11.5397 3.0843L9.30755 8.34306C9.23523 8.51345 9.07468 8.62994 8.89026 8.64585L3.17692 9.13851C2.7368 9.17646 2.55852 9.72473 2.89214 10.0143L7.22266 13.7727C7.36252 13.8941 7.42384 14.0828 7.38201 14.2632L6.08715 19.8478C5.98732 20.2784 6.45421 20.6172 6.83259 20.3888L11.7416 17.4259Z" fill="#FFBE00"/>
</svg>
