<svg width="16" height="17" viewBox="0 0 16 17" fill="none" xmlns="http://www.w3.org/2000/svg">
<path d="M8 7H9V10H8V7ZM3 8H4V7H3V8ZM16 2.5V14.5C16 15.0304 15.7893 15.5391 15.4142 15.9142C15.0391 16.2893 14.5304 16.5 14 16.5H2C1.46957 16.5 0.960859 16.2893 0.585786 15.9142C0.210714 15.5391 0 15.0304 0 14.5V2.5C0 1.96957 0.210714 1.46086 0.585786 1.08579C0.960859 0.710714 1.46957 0.5 2 0.5H14C14.5304 0.5 15.0391 0.710714 15.4142 1.08579C15.7893 1.46086 16 1.96957 16 2.5ZM5.5 7C5.5 6.60218 5.34196 6.22064 5.06066 5.93934C4.77936 5.65804 4.39782 5.5 4 5.5H1.5V11.5H3V9.5H4C4.39782 9.5 4.77936 9.34196 5.06066 9.06066C5.34196 8.77936 5.5 8.39782 5.5 8V7ZM10.5 7C10.5 6.60218 10.342 6.22064 10.0607 5.93934C9.77936 5.65804 9.39782 5.5 9 5.5H6.5V11.5H9C9.39782 11.5 9.77936 11.342 10.0607 11.0607C10.342 10.7794 10.5 10.3978 10.5 10V7ZM14.5 5.5H11.5V11.5H13V9.5H14.5V8H13V7H14.5V5.5Z" fill="#394752"/>
</svg>
