<svg width="24" height="24" viewBox="0 0 24 24" fill="none" xmlns="http://www.w3.org/2000/svg">
<path d="M9.0313 9.32092H4.26823C2.79547 9.32092 1.60156 10.5148 1.60156 11.9876V16.6665C1.60156 18.1393 2.79547 19.3332 4.26823 19.3332H9.0313C10.5041 19.3332 11.698 18.1393 11.698 16.6665V11.9876C11.698 10.5148 10.5041 9.32092 9.0313 9.32092Z" fill="#FFAD3B"/>
<path d="M19.7054 6H12.9792C11.5064 6 10.3125 7.19391 10.3125 8.66667V15.2924C10.3125 16.7652 11.5064 17.9591 12.9792 17.9591H19.7054C21.1782 17.9591 22.3721 16.7652 22.3721 15.2924V8.66667C22.3721 7.19391 21.1782 6 19.7054 6Z" fill="#FFDBA9"/>
<path d="M4.28125 11.9792L8.97106 16.6299" stroke="#FFD59D" stroke-width="1.40695"/>
<path d="M8.97131 11.9792L4.28149 16.6299" stroke="#FFD59D" stroke-width="1.40695"/>
<path d="M12.9896 11.9785L14.9996 13.9717L19.6894 9.32092" stroke="#FFAD3B" stroke-width="2.11043"/>
</svg>
