<svg width="24" height="24" viewBox="0 0 24 24" fill="none" xmlns="http://www.w3.org/2000/svg">
<path d="M8.7762 8.39972H5.06767C3.59491 8.39972 2.401 9.59363 2.401 11.0664V14.7749C2.401 16.2477 3.59491 17.4416 5.06767 17.4416H8.7762C10.249 17.4416 11.4429 16.2477 11.4429 14.7749V11.0664C11.4429 9.59363 10.249 8.39972 8.7762 8.39972Z" fill="#2D81F7"/>
<path d="M4.77677 18.7655L7.92703 17.1904L3.90845 16.4369V18.2288C3.90845 18.6749 4.37783 18.965 4.77677 18.7655Z" fill="#2D81F7"/>
<path d="M18.3755 5.39975H12.9089C11.4361 5.39975 10.2422 6.59366 10.2422 8.06642V13.5331C10.2422 15.0058 11.4361 16.1998 12.9089 16.1998H18.3755C19.8483 16.1998 21.0422 15.0058 21.0422 13.5331V8.06642C21.0422 6.59366 19.8483 5.39975 18.3755 5.39975Z" fill="#9FC7FF"/>
<path d="M18.6739 17.5658L14.7422 15.5999L19.5422 14.6999V17.0291C19.5422 17.4751 19.0728 17.7652 18.6739 17.5658Z" fill="#9FC7FF"/>
</svg>
