<svg width="24" height="24" viewBox="0 0 24 24" fill="none" xmlns="http://www.w3.org/2000/svg">
<path d="M16.064 8H5.26934C4.5683 8 4 8.5683 4 9.26934V18.064C4 18.765 4.5683 19.3333 5.26934 19.3333H16.064C16.765 19.3333 17.3333 18.765 17.3333 18.064V9.26934C17.3333 8.5683 16.765 8 16.064 8Z" fill="#9FC7FF"/>
<path d="M10.6667 13.6667C11.5871 13.6667 12.3333 12.9205 12.3333 12C12.3333 11.0795 11.5871 10.3333 10.6667 10.3333C9.74619 10.3333 9 11.0795 9 12C9 12.9205 9.74619 13.6667 10.6667 13.6667Z" fill="#2D81F7"/>
<path d="M10.6666 14C9.26364 14 8.06304 14.8668 7.57124 16.0941C7.31051 16.7449 7.90164 17.3333 8.60264 17.3333H12.7306C13.4316 17.3333 14.0228 16.7449 13.762 16.0941C13.2702 14.8668 12.0696 14 10.6666 14Z" fill="#2D81F7"/>
<path d="M14.1945 4H19.4294C20.4809 4 21.3334 4.85246 21.3334 5.90401V8.42972C21.3334 9.48128 20.4809 10.3337 19.4294 10.3337H14.1945C13.143 10.3337 12.2905 9.48128 12.2905 8.42972V5.90401C12.2905 4.85246 13.143 4 14.1945 4Z" fill="#2D81F7"/>
<path d="M15.9297 11.6784L18.5521 10.3519L15.0085 9.67966V11.1121C15.0085 11.5852 15.5075 11.8919 15.9297 11.6784Z" fill="#2D81F7"/>
</svg>
