<svg width="25" height="24" viewBox="0 0 25 24" fill="none" xmlns="http://www.w3.org/2000/svg">
<path d="M10.4998 12V22H8.49979V14H6.49979V12H10.4998ZM18.4998 14V20C18.4998 21.11 17.6098 22 16.4998 22H14.4998C13.9694 22 13.4606 21.7893 13.0856 21.4142C12.7105 21.0391 12.4998 20.5304 12.4998 20V14C12.4998 13.4696 12.7105 12.9609 13.0856 12.5858C13.4606 12.2107 13.9694 12 14.4998 12H16.4998C17.6098 12 18.4998 12.9 18.4998 14ZM14.4998 14V20H16.4998V14H14.4998ZM11.9998 3C14.6498 3 17.0498 4 18.8998 5.6L21.4998 3V10H14.4998L17.1198 7.38C15.7298 6.22 13.9598 5.5 11.9998 5.5C8.45979 5.5 5.44979 7.81 4.39979 11L2.02979 10.22C3.41979 6.03 7.34979 3 11.9998 3Z" fill="#394752"/>
</svg>
