<svg width="24" height="24" viewBox="0 0 24 24" fill="none" xmlns="http://www.w3.org/2000/svg">
<path d="M5.33329 20.6667H13.3333C14.0697 20.6667 14.6666 20.0697 14.6666 19.3333L14.6666 4.66666C14.6666 3.93028 14.0697 3.33332 13.3333 3.33332H5.33329C4.59691 3.33332 3.99996 3.93028 3.99996 4.66666L3.99996 19.3333C3.99996 20.0697 4.59691 20.6667 5.33329 20.6667Z" fill="#FFDBA9"/>
<path d="M14.6662 14.9222C16.2934 14.9222 17.6124 13.6434 17.6124 12.0659C17.6124 10.4885 16.2934 9.20966 14.6662 9.20966C13.0391 9.20966 11.7201 10.4885 11.7201 12.0659C11.7201 13.6434 13.0391 14.9222 14.6662 14.9222Z" fill="#FFAD3B"/>
<path d="M13.4871 13.2083H15.8439V15.9692C15.8439 16.3374 15.5455 16.6359 15.1773 16.6359H14.1537C13.7855 16.6359 13.4871 16.3374 13.4871 15.9692V13.2083Z" fill="#FFAD3B"/>
<path d="M14.666 16.0645H14.666C14.3406 16.0645 14.0768 16.3283 14.0768 16.6537V17.189C14.0768 17.5144 14.3406 17.7782 14.666 17.7782H14.666C14.9914 17.7782 15.2552 17.5144 15.2552 17.189V16.6537C15.2552 16.3283 14.9914 16.0645 14.666 16.0645Z" fill="#FFAD3B"/>
<path d="M14.6674 6H14.6674C14.3419 6 14.0781 6.26381 14.0781 6.58923V7.69579C14.0781 8.02121 14.3419 8.28502 14.6674 8.28502C14.9928 8.28502 15.2566 8.02121 15.2566 7.69579V6.58923C15.2566 6.26381 14.9928 6 14.6674 6Z" fill="#FFAD3B"/>
<path d="M10.6169 8.0539C10.4066 7.81092 10.034 7.77834 9.78475 7.98113C9.53546 8.18393 9.50386 8.54531 9.71417 8.78829L10.4676 9.65879C10.6779 9.90178 11.0505 9.93436 11.2998 9.73156C11.549 9.52876 11.5806 9.16739 11.3703 8.9244L10.6169 8.0539Z" fill="#FFAD3B"/>
<path d="M18.7165 8.0539C18.9268 7.81092 19.2993 7.77834 19.5486 7.98113C19.7979 8.18393 19.8295 8.54531 19.6192 8.78829L18.8658 9.65879C18.6555 9.90178 18.2829 9.93436 18.0336 9.73156C17.7843 9.52876 17.7527 9.16739 17.963 8.9244L18.7165 8.0539Z" fill="#FFAD3B"/>
<path d="M7.33337 3.33334C7.33337 4.06972 7.93031 4.66668 8.66671 4.66668H10C10.7364 4.66668 11.3334 4.06972 11.3334 3.33334H7.33337Z" fill="#FFAD3B"/>
<path d="M7.33337 19.6667C7.33337 19.8507 7.48264 20 7.66671 20H11C11.1841 20 11.3334 19.8507 11.3334 19.6667C11.3334 19.4826 11.1841 19.3333 11 19.3333H7.66671C7.48264 19.3333 7.33337 19.4826 7.33337 19.6667Z" fill="#FFAD3B"/>
</svg>
