<svg width="25" height="24" viewBox="0 0 25 24" fill="none" xmlns="http://www.w3.org/2000/svg">
<path d="M13 3C17.65 3 21.58 6.03 22.97 10.22L20.6 11C19.55 7.81 16.54 5.5 13 5.5C11.04 5.5 9.27 6.22 7.88 7.38L10.5 10H3.5V3L6.1 5.6C7.95 4 10.35 3 13 3ZM10.5 12V22H8.5V14H6.5V12H10.5ZM18.5 14V20C18.5 21.11 17.61 22 16.5 22H14.5C13.9696 22 13.4609 21.7893 13.0858 21.4142C12.7107 21.0391 12.5 20.5304 12.5 20V14C12.5 13.4696 12.7107 12.9609 13.0858 12.5858C13.4609 12.2107 13.9696 12 14.5 12H16.5C17.61 12 18.5 12.9 18.5 14ZM14.5 14V20H16.5V14H14.5Z" fill="#394752"/>
</svg>
