<svg width="21" height="20" viewBox="0 0 21 20" fill="none" xmlns="http://www.w3.org/2000/svg">
<path d="M10.4998 6C11.5607 6 12.5781 6.42143 13.3283 7.17157C14.0784 7.92172 14.4998 8.93913 14.4998 10C14.4998 11.0609 14.0784 12.0783 13.3283 12.8284C12.5781 13.5786 11.5607 14 10.4998 14C9.43897 14 8.42156 13.5786 7.67141 12.8284C6.92127 12.0783 6.49984 11.0609 6.49984 10C6.49984 8.93913 6.92127 7.92172 7.67141 7.17157C8.42156 6.42143 9.43897 6 10.4998 6ZM10.4998 8C9.96941 8 9.4607 8.21071 9.08563 8.58579C8.71055 8.96086 8.49984 9.46957 8.49984 10C8.49984 10.5304 8.71055 11.0391 9.08563 11.4142C9.4607 11.7893 9.96941 12 10.4998 12C11.0303 12 11.539 11.7893 11.9141 11.4142C12.2891 11.0391 12.4998 10.5304 12.4998 10C12.4998 9.46957 12.2891 8.96086 11.9141 8.58579C11.539 8.21071 11.0303 8 10.4998 8ZM8.49984 20C8.24984 20 8.03984 19.82 7.99984 19.58L7.62984 16.93C6.99984 16.68 6.45984 16.34 5.93984 15.94L3.44984 16.95C3.22984 17.03 2.95984 16.95 2.83984 16.73L0.839839 13.27C0.709839 13.05 0.76984 12.78 0.95984 12.63L3.06984 10.97L2.99984 10L3.06984 9L0.95984 7.37C0.76984 7.22 0.709839 6.95 0.839839 6.73L2.83984 3.27C2.95984 3.05 3.22984 2.96 3.44984 3.05L5.93984 4.05C6.45984 3.66 6.99984 3.32 7.62984 3.07L7.99984 0.42C8.03984 0.18 8.24984 0 8.49984 0H12.4998C12.7498 0 12.9598 0.18 12.9998 0.42L13.3698 3.07C13.9998 3.32 14.5398 3.66 15.0598 4.05L17.5498 3.05C17.7698 2.96 18.0398 3.05 18.1598 3.27L20.1598 6.73C20.2898 6.95 20.2298 7.22 20.0398 7.37L17.9298 9L17.9998 10L17.9298 11L20.0398 12.63C20.2298 12.78 20.2898 13.05 20.1598 13.27L18.1598 16.73C18.0398 16.95 17.7698 17.04 17.5498 16.95L15.0598 15.95C14.5398 16.34 13.9998 16.68 13.3698 16.93L12.9998 19.58C12.9598 19.82 12.7498 20 12.4998 20H8.49984ZM9.74984 2L9.37984 4.61C8.17984 4.86 7.11984 5.5 6.34984 6.39L3.93984 5.35L3.18984 6.65L5.29984 8.2C4.89984 9.37 4.89984 10.64 5.29984 11.8L3.17984 13.36L3.92984 14.66L6.35984 13.62C7.12984 14.5 8.17984 15.14 9.36984 15.38L9.73984 18H11.2598L11.6298 15.39C12.8198 15.14 13.8698 14.5 14.6398 13.62L17.0698 14.66L17.8198 13.36L15.6998 11.81C16.0998 10.64 16.0998 9.37 15.6998 8.2L17.8098 6.65L17.0598 5.35L14.6498 6.39C13.8798 5.5 12.8198 4.86 11.6198 4.62L11.2498 2H9.74984Z" fill="#394752"/>
</svg>
