<svg width="161" height="24" viewBox="0 0 161 24" fill="none" xmlns="http://www.w3.org/2000/svg">
<g clip-path="url(#clip0_409_2584)">
<path d="M34.7305 12.4952C34.7305 15.5414 35.8895 17.6968 39.337 17.6968C41.8038 17.6968 43.2006 16.1737 43.2006 16.1737L43.4087 16.9209C43.4978 17.2083 43.6167 17.4094 43.9436 17.4094H44.5083C44.8055 17.4094 45.073 17.1508 45.073 16.8634V6.46009C45.073 6.17271 44.8055 5.91406 44.5083 5.91406H43.587C43.2898 5.91406 43.0223 6.17271 43.0223 6.46009V14.1332C43.0223 14.1332 41.7444 15.7713 39.4856 15.7713C37.8213 15.7713 36.8109 14.708 36.8109 12.5239V6.46009C36.8109 6.17271 36.5434 5.91406 36.2462 5.91406H35.2951C34.9979 5.91406 34.7305 6.17271 34.7305 6.46009V12.4952Z" fill="#08BD80"/>
<path fill-rule="evenodd" clip-rule="evenodd" d="M66.0013 10.1101C62.9401 10.1101 61.2461 11.7482 61.2461 13.9324C61.2461 16.2314 62.8212 17.6971 64.9016 17.6971C66.7443 17.6971 67.9628 16.8062 68.5869 16.2027L68.8247 16.9786C68.9138 17.2373 69.003 17.4097 69.3299 17.4097H69.8946C70.1918 17.4097 70.4592 17.1511 70.4592 16.8637V10.4837C70.4592 7.12135 69.7163 5.62695 66.6848 5.62695C64.4558 5.62695 62.7321 6.28794 62.5538 6.37415C62.2863 6.48911 62.108 6.66154 62.2268 7.0064L62.4646 7.72486C62.5538 7.9835 62.7321 8.12719 63.0293 8.01224C63.5642 7.81107 64.9611 7.38 66.5957 7.38C68.2897 7.38 68.5572 8.3571 68.5275 10.4837C68.5275 10.4837 67.2792 10.1101 66.0013 10.1101ZM65.2281 15.9728C63.9502 15.9728 63.1477 15.0819 63.1477 13.9323C63.1477 12.4379 64.3365 11.6333 66.0008 11.6333C67.3085 11.6333 68.1407 11.8919 68.4973 12.0931V14.3634C67.9921 15.0819 66.7141 15.9728 65.2281 15.9728Z" fill="#2D81F7"/>
<path d="M73.2266 11.6908C73.2266 15.1394 76.0202 17.6971 79.3191 17.6971C81.3401 17.6971 82.9747 16.6625 83.8663 15.2831C84.0446 14.9957 83.9554 14.6796 83.6582 14.4784L83.3313 14.2485C83.0044 14.0186 82.7964 13.9611 82.4397 14.306C81.7562 14.9382 81.0726 15.8003 79.2894 15.8003C77.0604 15.8003 75.3664 13.9611 75.3664 11.662C75.3664 9.36295 77.0901 7.58116 79.3191 7.58116C80.4782 7.58116 81.459 8.12719 82.0534 8.78818C82.3208 9.01808 82.4694 9.30547 82.9152 8.90313L83.4799 8.44332C83.7474 8.24215 83.8068 7.89729 83.5988 7.63864C82.5289 6.31667 81.132 5.62695 79.3489 5.62695C76.1094 5.62695 73.2266 8.29962 73.2266 11.6908Z" fill="#2D81F7"/>
<path fill-rule="evenodd" clip-rule="evenodd" d="M91.4798 10.1101C88.4186 10.1101 86.7246 11.7482 86.7246 13.9324C86.7246 16.2314 88.2998 17.6971 90.3801 17.6971C92.2228 17.6971 93.4413 16.8062 94.0654 16.2027L94.3032 16.9786C94.3923 17.2373 94.4815 17.4097 94.8084 17.4097H95.3731C95.6703 17.4097 95.9377 17.1511 95.9377 16.8637V10.4837C95.9377 7.12135 95.1947 5.62695 92.1633 5.62695C89.9343 5.62695 88.2106 6.28794 88.0323 6.37415C87.7648 6.48911 87.5865 6.66154 87.7054 7.0064L87.9431 7.72486C88.0323 7.9835 88.2106 8.12719 88.5078 8.01224C89.0428 7.81107 90.4396 7.38 92.0742 7.38C93.7682 7.38 94.0357 8.3571 94.006 10.4837C94.006 10.4837 92.7577 10.1101 91.4798 10.1101ZM90.7059 15.9728C89.4279 15.9728 88.6255 15.0819 88.6255 13.9323C88.6255 12.4379 89.8143 11.6333 91.4786 11.6333C92.7862 11.6333 93.6184 11.8919 93.975 12.0931V14.3634C93.4698 15.0819 92.1918 15.9728 90.7059 15.9728Z" fill="#2D81F7"/>
<path fill-rule="evenodd" clip-rule="evenodd" d="M104.411 5.62646C100.845 5.62646 98.7051 8.27039 98.7051 11.6328C98.7051 14.9377 101.083 17.6966 104.114 17.6966C106.343 17.6966 107.77 16.1735 107.77 16.1735L107.948 16.9494C108.007 17.208 108.186 17.4092 108.453 17.4092H109.077C109.375 17.4092 109.642 17.1506 109.642 16.8632V0.54603C109.642 0.258646 109.375 0 109.077 0H108.156C107.859 0 107.591 0.258646 107.591 0.54603V6.37366C107.591 6.37366 106.373 5.62646 104.411 5.62646ZM104.321 15.8859C102.152 15.8859 100.785 13.903 100.785 11.6614C100.785 9.36229 102.092 7.55177 104.678 7.55177C106.313 7.55177 107.561 8.24149 107.561 8.24149V13.9892C107.561 13.9892 106.461 15.8859 104.321 15.8859Z" fill="#2D81F7"/>
<path fill-rule="evenodd" clip-rule="evenodd" d="M118.233 5.62695C114.637 5.62695 112.408 8.41458 112.408 11.662C112.408 14.9669 114.637 17.6971 118.233 17.6971C120.284 17.6971 121.889 16.9211 122.602 16.3751C123.048 16.059 122.929 15.8866 122.721 15.6279C122.632 15.513 122.55 15.4052 122.468 15.2974C122.387 15.1897 122.305 15.0819 122.216 14.9669C121.999 14.6786 121.831 14.7728 121.488 14.966C121.455 14.9846 121.42 15.0042 121.384 15.0244C120.7 15.4267 119.69 15.8866 118.441 15.8866C116.331 15.8866 114.578 14.076 114.459 12.1506H123.018C123.286 12.1506 123.523 11.9494 123.553 11.662C123.583 11.4608 123.613 11.0872 123.613 10.8861C123.613 7.86855 121.354 5.62695 118.233 5.62695ZM121.56 10.5412H114.487C114.695 8.75945 116.241 7.38001 118.232 7.38001C120.045 7.38001 121.471 8.87441 121.56 10.5412Z" fill="#2D81F7"/>
<path d="M126.381 16.8637C126.381 17.1511 126.648 17.4097 126.946 17.4097H127.867C128.164 17.4097 128.432 17.1511 128.432 16.8637V9.19052C128.432 9.19052 129.709 7.55243 131.82 7.55243C133.632 7.55243 134.643 8.61575 134.643 10.7999V16.8637C134.643 17.1511 134.91 17.4097 135.208 17.4097H136.159C136.456 17.4097 136.723 17.1511 136.723 16.8637V10.7999C136.723 10.1964 136.664 9.65033 136.575 9.16178C136.991 8.78818 138.269 7.55243 140.201 7.55243C141.924 7.55243 142.875 8.64449 142.875 10.7999V16.8637C142.875 17.1511 143.143 17.4097 143.44 17.4097H144.391C144.688 17.4097 144.956 17.1511 144.956 16.8637V10.7999C144.956 7.81107 143.797 5.62695 140.349 5.62695C137.972 5.62695 136.07 7.38 135.921 7.49495C135.148 6.28794 133.87 5.62695 132.117 5.62695C129.65 5.62695 128.253 7.15009 128.253 7.15009L127.986 6.2592C127.926 6.02929 127.778 5.91434 127.51 5.91434H126.946C126.648 5.91434 126.381 6.17298 126.381 6.46037V16.8637Z" fill="#2D81F7"/>
<path d="M153.319 17.3807L150.912 23.2817C150.704 23.6841 150.942 24.0002 151.387 24.0002H152.487C152.695 24.0002 152.903 23.8278 152.992 23.6553L160.719 6.57505C160.927 6.20145 160.719 5.91406 160.273 5.91406H159.144C158.936 5.91406 158.728 6.05775 158.639 6.23019L154.478 15.0241L150.05 6.23019C149.961 6.05775 149.782 5.91406 149.544 5.91406H148.237C147.791 5.91406 147.613 6.17271 147.791 6.54631L153.319 17.3807Z" fill="#2D81F7"/>
<path d="M47.8379 16.8637C47.8379 17.1511 48.1054 17.4097 48.4026 17.4097H49.3239C49.6211 17.4097 49.8886 17.1511 49.8886 16.8637V9.19052C49.8886 9.19052 51.4934 7.55243 53.7224 7.55243C55.3867 7.55243 56.3972 8.61575 56.3972 10.7999V16.8637C56.3972 17.1511 56.6647 17.4097 56.9619 17.4097H57.9129C58.2101 17.4097 58.4776 17.1511 58.4776 16.8637V10.7999C58.4776 7.81107 57.3185 5.62695 53.871 5.62695C51.4043 5.62695 49.7102 7.15009 49.7102 7.15009L49.4428 6.2592C49.3833 6.02929 49.2347 5.91434 48.9672 5.91434H48.4026C48.1054 5.91434 47.8379 6.17298 47.8379 6.46037V16.8637Z" fill="#08BD80"/>
<path d="M0.152112 2.23114C1.25646 9.00634 7.327 14.1878 14.6502 14.1878C21.8993 14.1878 27.9209 9.11067 29.1132 2.43632C29.2659 1.80969 29.329 1.30921 29.3097 0.880426C29.3097 0.389179 28.9454 0.0078125 28.4404 0.0078125H27.621H1.81709H0.872732C0.368038 0.0078125 0.00392374 0.388606 0.00337651 0.879318C0.0022506 0.879276 0.00112508 0.879233 4.86814e-09 0.879189C0.00068873 0.890165 0.00139037 0.901137 0.00210494 0.912106C-0.0110673 1.28558 0.037421 1.71356 0.152112 2.23114Z" fill="#2D81F7"/>
<path d="M21.8554 22.8668C21.3032 19.4793 18.2679 16.8885 14.6064 16.8885C10.9818 16.8885 7.97099 19.4271 7.37485 22.7643C7.29852 23.0776 7.26694 23.3278 7.27659 23.5422C7.27659 23.7878 7.45873 23.9785 7.71127 23.9785H8.12093H21.0229H21.4951C21.7474 23.9785 21.9295 23.7881 21.9298 23.5428C21.9303 23.5428 21.9309 23.5428 21.9314 23.5428C21.9311 23.5373 21.9307 23.5319 21.9304 23.5264C21.937 23.3396 21.9127 23.1256 21.8554 22.8668Z" fill="#08BD80"/>
</g>
<defs>
<clipPath id="clip0_409_2584">
<rect width="161" height="24" fill="white"/>
</clipPath>
</defs>
</svg>
